<svg width="512" height="512" viewBox="0 0 512 512" fill="none" xmlns="http://www.w3.org/2000/svg">
  <rect width="512" height="512" rx="128" fill="#3182ce"/>
  <path d="M128 320V192h80v-32h-80c-17.6 0-32 14.4-32 32v128c0 17.6 14.4 32 32 32h256c17.6 0 32-14.4 32-32V192c0-17.6-14.4-32-32-32h-80v32h80v128H128z" fill="white"/>
  <path d="M256 128c-35.3 0-64 28.7-64 64s28.7 64 64 64 64-28.7 64-64-28.7-64-64-64zm0 96c-17.6 0-32-14.4-32-32s14.4-32 32-32 32 14.4 32 32-14.4 32-32 32z" fill="white"/>
  <path d="M288 288h-64c-17.6 0-32 14.4-32 32v32h128v-32c0-17.6-14.4-32-32-32z" fill="white"/>
</svg>